<?xml version="1.0" encoding="UTF-8"?>
<svg id="Calque_1" xmlns="http://www.w3.org/2000/svg" version="1.1" viewBox="0 0 1955.847 904.914">
  <!-- Generator: Adobe Illustrator 29.0.1, SVG Export Plug-In . SVG Version: 2.1.0 Build 192)  -->
  <defs>
    <style>
      .st0 {
        fill: #000091;
      }

      .st1 {
        fill: #e1000f;
      }
    </style>
  </defs>
  <path class="st0" d="M66.432,618.393c-21.981-50.938-34.217-107.029-34.217-165.939s12.236-115,34.217-165.938C132.039,126.329,289.555,13.157,473.086,13.157c103.255,0,198.229,35.897,273.305,95.746C667.254,41.098,564.593,0,452.454,0,202.972,0,0,202.969,0,452.454s202.972,452.46,452.454,452.46c112.137,0,214.797-41.098,293.933-108.903-75.076,59.849-170.049,95.746-273.302,95.746-183.53,0-341.046-113.176-406.653-273.364h0Z"/>
  <path class="st0" d="M795.532,625.205c-.599,1.063-1.221,2.11-1.831,3.166-.137.279-.245.563-.378.843l-.045-.023.394-.771c-15.464,26.77-34.346,51.324-56.147,72.975-66.723,71.513-161.691,116.348-266.981,116.348-102.111,0-194.52-42.167-260.871-109.941,69.603,77.81,170.685,126.898,283.05,126.898,153.409,0,285.77-91.47,345.65-222.695-16.224-4.443-33.776-.655-42.841,13.199h0Z"/>
  <path class="st0" d="M819.924,337.634c.112.396.247.78.366,1.172.427,1.199.822,2.412,1.236,3.617,5.471,14.434,16.32,25.151,31.415,25.151h-.044c3.389.093,6.632.2,9.633.505-39.361-167.752-190.224-293.034-369.809-293.034-82.431,0-158.75,26.478-221.076,71.26,57.278-37.34,125.571-59.135,198.896-59.135,134.423,0,252.037,73.036,315.461,181.459,13.758,21.589,25.164,44.803,33.943,69.259l-.022-.253h0Z"/>
  <g>
    <path class="st0" d="M151.634,264.207h55.199v16.367h-35.989v21.919h30.574v16.371h-30.574v40.046h-19.21v-94.703h0Z"/>
    <path class="st0" d="M225.104,264.207h28.952c20.832,0,33.684,10.685,33.684,28.273,0,11.364-5.545,19.889-15.15,24.488l29.762,41.942h-22.999l-25.163-38.286h-9.876v38.286h-19.21v-94.703ZM244.314,280.574v23.678h10.822c8.117,0,12.852-4.331,12.852-12.043,0-7.17-4.736-11.635-12.852-11.635h-10.822Z"/>
    <path class="st0" d="M343.627,264.207h25.163l35.852,94.703h-20.427l-9.067-24.621h-37.878l-9.067,24.621h-20.427l35.852-94.703h0ZM369.198,317.914l-12.99-35.581-12.986,35.581h25.976Z"/>
    <path class="st0" d="M420.615,264.207h24.621l42.347,67.781v-67.781h19.21v94.703h-24.621l-42.347-68.052v68.052h-19.21v-94.703Z"/>
    <path class="st0" d="M601.644,330.633l15.153,11.635c-8.659,11.772-22.728,19.347-39.912,19.347-29.899,0-50.33-22.999-50.33-50.059s20.431-50.055,50.33-50.055c17.184,0,31.253,7.709,39.912,19.21l-15.153,11.769c-5.411-7.712-13.936-12.986-24.759-12.986-17.859,0-30.574,13.933-30.574,32.063s12.715,32.066,30.574,32.066c10.822,0,19.347-5.278,24.759-12.99h0Z"/>
    <path class="st0" d="M634.801,264.207h55.199v16.367h-35.989v21.919h30.574v16.371h-30.574v23.675h35.989v16.371h-55.199v-94.703h0Z"/>
  </g>
  <g>
    <path class="st1" d="M727.635,511.064l32.093,52.538c1.997,1.719,4.057,3.368,6.183,4.927l-39.825-65.192c.409,2.612.939,5.185,1.548,7.727"/>
    <path class="st1" d="M725.975,472.703l51.277,103.041c1.333.727,2.691,1.414,4.062,2.085l-54.552-109.626c-.291,1.491-.561,2.989-.786,4.5"/>
    <path class="st1" d="M734.729,444.244l53.843,136.735c1.125.442,2.264.867,3.409,1.268l-55.605-141.217c-.563,1.064-1.123,2.128-1.647,3.214"/>
    <path class="st1" d="M749.49,421.906l48.115,162.117c1.018.287,2.039.578,3.072.834l-49.063-165.325c-.723.779-1.428,1.572-2.124,2.374"/>
    <path class="st1" d="M808.291,586.439l-37.451-183.017c-.821.528-1.638,1.058-2.439,1.607l37.02,180.898c.95.188,1.912.35,2.871.512"/>
    <path class="st1" d="M815.305,587.382l-22.52-194.574c-.878.298-1.756.591-2.621.913l22.376,193.335c.92.116,1.837.236,2.765.326"/>
    <path class="st1" d="M822.015,587.786l-5.719-199.915c-.904.077-1.809.164-2.704.267l5.711,199.549c.9.05,1.806.07,2.713.099"/>
    <path class="st1" d="M828.652,587.771l11.57-199.161c-.891-.136-1.796-.232-2.693-.344l-11.594,199.573c.909-.007,1.813-.035,2.717-.068"/>
    <path class="st1" d="M835.435,587.326l28.003-192.231c-.854-.355-1.721-.688-2.59-1.018l-28.183,193.468c.924-.07,1.852-.123,2.77-.219"/>
    <path class="st1" d="M842.618,586.296l42.172-179.078c-.784-.582-1.583-1.136-2.382-1.697l-42.687,181.263c.972-.145,1.934-.318,2.897-.488"/>
    <path class="st1" d="M850.516,584.589l52.571-159.753c-.668-.828-1.353-1.64-2.047-2.448l-53.619,162.938c1.036-.236,2.073-.471,3.096-.738"/>
    <path class="st1" d="M859.696,581.707l57.313-133.86c-.486-1.123-.983-2.244-1.511-3.348l-59.253,138.386c1.158-.379,2.312-.76,3.451-1.178"/>
    <path class="st1" d="M871.359,576.515l53.308-99.658c-.166-1.555-.361-3.098-.6-4.631l-56.884,106.35c1.408-.653,2.801-1.342,4.176-2.06"/>
    <path class="st1" d="M889.834,564.079l31.316-48.027c.784-2.658,1.482-5.356,2.047-8.102l-39.934,61.246c2.262-1.616,4.454-3.322,6.571-5.117"/>
    <rect class="st1" x="228.561" y="582.405" width="130.626" height=".079"/>
    <path class="st1" d="M294.955,388.16c-1.121,0-2.203.066-3.3.103h7.046c-1.239-.061-2.487-.103-3.746-.103"/>
    <path class="st1" d="M298.702,388.261h-7.048c-6.777.23-13.157,1.132-19.126,2.709h42.505c-5.148-1.509-10.626-2.428-16.33-2.709"/>
    <path class="st1" d="M336.018,401.929h-87.318c-1.248.863-2.466,1.774-3.668,2.709h94.033c-.974-.942-1.997-1.839-3.048-2.709"/>
    <path class="st1" d="M347.611,415.596h-114.173c-.782.885-1.546,1.789-2.301,2.709h117.92c-.455-.92-.937-1.824-1.445-2.709"/>
    <path class="st1" d="M352.952,429.264h-41.125c.688.845,1.309,1.75,1.872,2.709h39.799c-.16-.913-.342-1.817-.545-2.709"/>
    <path class="st1" d="M222.622,430.261l2.811,1.712h39.115c.966-.961,1.962-1.857,2.978-2.709h-44.259c-.212.337-.436.657-.646.996"/>
    <path class="st1" d="M354.278,442.932h-37.298c.061.799.107,1.609.107,2.446,0,.09-.009.175-.009.263h37.09c.061-.893.09-1.8.11-2.709"/>
    <path class="st1" d="M247.873,445.64h6.1c.582-.924,1.169-1.824,1.763-2.706h-12.31l4.447,2.706Z"/>
    <path class="st1" d="M352.348,456.601h-37.103c-.311.913-.666,1.813-1.053,2.706h37.383c.28-.893.532-1.798.773-2.706"/>
    <path class="st1" d="M347.032,470.265h-39.536c-.696.898-1.417,1.8-2.179,2.709h40.278c.504-.893.97-1.8,1.436-2.709"/>
    <path class="st1" d="M338.363,483.933h-43.142c-.622.637-1.242,1.274-1.883,1.931l-.795.777h43.698c.718-.898,1.434-1.798,2.122-2.709"/>
    <path class="st1" d="M326.609,497.601h-45.211l-2.755,2.709h45.343c.882-.898,1.756-1.8,2.623-2.709"/>
    <polygon class="st1" points="312.791 511.269 267.499 511.269 264.742 513.978 309.982 513.978 312.791 511.269"/>
    <polygon class="st1" points="298.619 524.937 253.598 524.937 250.843 527.646 295.809 527.646 298.619 524.937"/>
    <polygon class="st1" points="284.449 538.603 239.7 538.603 236.946 541.312 281.64 541.312 284.449 538.603"/>
    <rect class="st1" x="228.561" y="552.272" width="130.628" height="2.709"/>
    <rect class="st1" x="228.561" y="565.939" width="130.628" height="2.709"/>
    <rect class="st1" x="228.561" y="579.692" width="130.628" height="2.709"/>
    <path class="st1" d="M679.375,580.8l31.202-31.202c.736-1.859,1.375-3.773,1.914-5.743l-39.347,39.35c2.144-.716,4.219-1.52,6.232-2.404"/>
    <path class="st1" d="M653.923,587.085l60.578-60.578c-.033-1.224-.101-2.43-.206-3.626l-64.471,64.473c1.382-.057,2.746-.151,4.099-.269"/>
    <path class="st1" d="M634.946,586.894l76.702-76.702c-.322-.937-.683-1.857-1.06-2.768l-79.08,79.078c1.128.153,2.279.278,3.438.392"/>
    <path class="st1" d="M645.458,555.055c-.55,0-1.077-.035-1.616-.05l-27.981,27.979c.966.32,1.973.582,2.963.869l28.883-28.883c-.747.037-1.487.085-2.249.085"/>
    <path class="st1" d="M677.511,525.164l27.615-27.615c-.53-.738-1.093-1.452-1.662-2.165l-26.295,26.291c.18,1.13.296,2.293.342,3.49"/>
    <path class="st1" d="M672.772,510.735l23.044-23.046c-.701-.571-1.414-1.132-2.15-1.677l-22.599,22.599c.609.679,1.178,1.386,1.706,2.124"/>
    <path class="st1" d="M628.067,551.608l-25.443,25.443c.815.464,1.629.928,2.468,1.364l25.715-25.717c-.931-.324-1.844-.69-2.739-1.09"/>
    <path class="st1" d="M616.693,543.816l-25.316,25.316c.692.589,1.388,1.169,2.098,1.734l25.224-25.224c-.681-.582-1.349-1.187-2.006-1.826"/>
    <path class="st1" d="M662.222,502.117l37.506-37.504c1.338-2.312,2.481-4.734,3.427-7.256l-43.624,43.622c.928.348,1.824.729,2.691,1.139"/>
    <path class="st1" d="M608.2,533.144l-26.324,26.321c.58.701,1.18,1.375,1.78,2.054l26.059-26.063c-.51-.742-1.014-1.528-1.515-2.312"/>
    <path class="st1" d="M644.111,498.379c.88,0,1.736.048,2.595.09l59.744-59.746c0-.088.007-.175.007-.265,0-1.167-.05-2.314-.12-3.451l-63.372,63.372h1.147,0Z"/>
    <path class="st1" d="M586.455,535.718l-12.571,12.571c.486.793.979,1.579,1.485,2.347l21.13-21.134-10.044,6.216Z"/>
    <path class="st1" d="M627.624,498.379l76.208-76.208c-.324-.942-.681-1.861-1.06-2.77l-78.977,78.977h3.83-.001Z"/>
    <polygon class="st1" points="637.016 465.993 613.07 489.938 613.07 493.768 640.845 465.993 637.016 465.993"/>
    <path class="st1" d="M668.804,438.034l28.38-28.38c-.545-.725-1.112-1.436-1.701-2.128l-27.434,27.434c.322.977.565,2.008.755,3.074"/>
    <path class="st1" d="M661.824,425.847l25.75-25.752c-.727-.545-1.474-1.077-2.238-1.592l-25.75,25.752c.784.493,1.537,1.016,2.238,1.592"/>
    <polygon class="st1" points="617.848 465.993 613.07 470.77 613.07 474.6 621.677 465.993 617.848 465.993"/>
    <path class="st1" d="M648.107,420.397l27.234-27.234c-.907-.377-1.826-.734-2.759-1.073l-28.053,28.053c1.224.028,2.417.114,3.578.254"/>
    <path class="st1" d="M608.681,440.656l8.417-8.417c1.176-1.327,2.4-2.555,3.681-3.683l39.65-39.648c-1.097-.188-2.209-.355-3.335-.497l-50.78,50.782,2.367,1.463h0Z"/>
    <path class="st1" d="M596.835,433.333l45.505-45.505c-1.382.055-2.739.14-4.079.25l-43.792,43.792,2.367,1.463h-.001Z"/>
    <path class="st1" d="M584.916,425.967l33.996-33.998c-2.165.734-4.268,1.557-6.304,2.474l-30.059,30.061,2.367,1.463h0Z"/>
    <path class="st1" d="M551.213,487.448c0-37.896-18.474-71.541-46.875-92.452-3.175-1.263-6.429-2.367-9.755-3.306,32.303,19.68,53.922,55.242,53.922,95.759,0,42.214-23.475,79.037-58.049,98.134,3.392-.799,6.713-1.769,9.961-2.906,30.617-20.628,50.797-55.616,50.797-95.229"/>
    <path class="st1" d="M563.242,459.118c-2.562-8.491-6.223-16.503-10.812-23.88,7.206,15.943,11.252,33.606,11.252,52.209,0,20.541-4.924,39.945-13.606,57.138,4.992-7.302,9.028-15.303,11.964-23.819,2.827-10.639,4.351-21.802,4.351-33.319,0-9.731-1.11-19.203-3.149-28.329"/>
    <path class="st1" d="M535.59,487.421c0-49.886-37.059-91.259-85.091-98.084-2.941.497-5.842,1.106-8.691,1.855,50.685,2.768,91.073,44.868,91.073,96.229,0,52.818-42.711,95.829-95.406,96.359,2.833.882,5.728,1.625,8.662,2.258,50.131-4.865,89.453-47.23,89.453-98.616"/>
    <path class="st1" d="M520.736,487.421c0-46.451-37.791-84.239-84.239-84.239-10.786,0-21.095,2.058-30.582,5.77-2.579,2.003-5.054,4.13-7.423,6.37,11.355-6.01,24.285-9.431,38.005-9.431,44.955,0,81.53,36.573,81.53,81.53s-36.575,81.531-81.53,81.531c-15.016,0-29.087-4.099-41.182-11.209,2.275,2.352,4.662,4.592,7.156,6.716,10.414,4.616,21.92,7.202,34.027,7.202,46.448,0,84.239-37.791,84.239-84.239"/>
    <path class="st1" d="M436.496,464.473c12.654,0,22.949,10.293,22.949,22.949s-10.296,22.949-22.949,22.949-22.949-10.296-22.949-22.949,10.296-22.949,22.949-22.949M436.496,513.08c14.147,0,25.658-11.511,25.658-25.658s-11.511-25.66-25.658-25.66-25.658,11.509-25.658,25.66,11.511,25.658,25.658,25.658"/>
    <path class="st1" d="M436.496,449.709c20.795,0,37.712,16.917,37.712,37.712s-16.917,37.714-37.712,37.714-37.71-16.919-37.71-37.714,16.917-37.712,37.71-37.712M436.496,527.841c22.288,0,40.42-18.13,40.42-40.42s-18.132-40.42-40.42-40.42-40.418,18.132-40.418,40.42,18.132,40.42,40.418,40.42"/>
    <path class="st1" d="M436.496,479.365c4.443,0,8.056,3.613,8.056,8.056s-3.613,8.056-8.056,8.056-8.056-3.613-8.056-8.056,3.613-8.056,8.056-8.056M436.496,498.185c5.936,0,10.764-4.828,10.764-10.764s-4.828-10.764-10.764-10.764-10.764,4.828-10.764,10.764,4.828,10.764,10.764,10.764"/>
    <path class="st1" d="M436.496,420.553c36.871,0,66.869,29.998,66.869,66.871s-29.998,66.867-66.869,66.867-66.869-29.998-66.869-66.867,29.998-66.871,66.869-66.871M436.496,556.999c38.364,0,69.577-31.213,69.577-69.575s-31.213-69.58-69.577-69.58c-34.467,0-63.144,25.196-68.621,58.134-.48,3.976-.755,8.016-.755,12.124,0,2.612.131,5.187.326,7.749,4.178,34.401,33.541,61.147,69.05,61.147"/>
    <path class="st1" d="M436.496,435.009c28.899,0,52.411,23.512,52.411,52.411s-23.512,52.413-52.411,52.413-52.411-23.512-52.411-52.413,23.512-52.411,52.411-52.411M436.496,542.542c30.392,0,55.119-24.727,55.119-55.121s-24.727-55.119-55.119-55.119-55.122,24.727-55.122,55.119,24.73,55.121,55.122,55.121"/>
  </g>
  <g>
    <path class="st0" d="M1041.947,311.483h-12.883v-79.106h24.297c8.287,0,14.822,2.053,19.607,6.159,4.783,4.107,7.176,9.663,7.176,16.669s-2.393,12.563-7.176,16.669c-4.786,4.107-11.321,6.159-19.607,6.159h-11.414v33.451h0ZM1066.697,254.978c0-3.616-1.13-6.459-3.39-8.532-2.26-2.071-5.387-3.107-9.38-3.107h-11.979v23.732h11.979c3.993,0,7.12-1.074,9.38-3.221s3.39-5.103,3.39-8.872h0Z"/>
    <path class="st0" d="M1114.274,311.483h-12.883v-79.106h22.376c8.286,0,14.821,2.053,19.607,6.159,4.783,4.107,7.176,9.663,7.176,16.669,0,4.747-1.13,8.872-3.391,12.375-2.26,3.503-5.463,6.159-9.605,7.967l25.088,35.937h-15.369l-22.037-33.451h-10.962v33.451h0ZM1137.102,254.978c0-3.616-1.13-6.459-3.391-8.532-2.26-2.071-5.35-3.107-9.267-3.107h-10.171v23.732h10.171c3.992,0,7.101-1.054,9.323-3.165,2.222-2.108,3.334-5.085,3.334-8.928h0Z"/>
    <path class="st0" d="M1172.926,271.929c0-11.753,3.955-21.659,11.865-29.722,7.911-8.061,17.855-12.092,29.835-12.092,11.903,0,21.828,4.031,29.778,12.092,7.947,8.062,11.922,17.969,11.922,29.722s-3.975,21.661-11.922,29.721c-7.95,8.062-17.875,12.092-29.778,12.092-11.979,0-21.924-4.03-29.835-12.092-7.91-8.061-11.865-17.968-11.865-29.721ZM1186.261,271.929c0,8.438,2.692,15.482,8.08,21.133,5.386,5.65,12.148,8.476,20.285,8.476,8.061,0,14.785-2.825,20.172-8.476,5.386-5.65,8.08-12.694,8.08-21.133s-2.675-15.482-8.023-21.133c-5.351-5.65-12.092-8.476-20.229-8.476s-14.899,2.845-20.285,8.532c-5.388,5.689-8.08,12.713-8.08,21.076h0Z"/>
    <path class="st0" d="M1288.195,271.929c0,8.438,2.806,15.482,8.419,21.133,5.611,5.65,12.638,8.476,21.076,8.476,4.295,0,8.287-.771,11.979-2.317,3.69-1.543,6.854-3.709,9.492-6.498v-15.934h-21.811v-11.188h34.807v31.981c-3.918,5.125-8.871,9.098-14.86,11.923s-12.526,4.238-19.607,4.238c-12.281,0-22.488-4.03-30.625-12.092-8.137-8.061-12.205-17.968-12.205-29.721s3.955-21.659,11.865-29.722c7.911-8.061,17.855-12.092,29.835-12.092,6.78,0,13.053,1.395,18.816,4.181,5.763,2.788,10.604,6.781,14.521,11.979l-10.397,8.024c-2.638-3.842-5.952-6.798-9.944-8.872-3.994-2.071-8.326-3.107-12.996-3.107-8.137,0-14.899,2.845-20.285,8.532-5.388,5.689-8.08,12.713-8.08,21.076Z"/>
    <path class="st0" d="M1391.145,311.483h-12.883v-79.106h22.376c8.286,0,14.821,2.053,19.607,6.159,4.783,4.107,7.176,9.663,7.176,16.669,0,4.747-1.13,8.872-3.391,12.375-2.26,3.503-5.463,6.159-9.605,7.967l25.088,35.937h-15.369l-22.037-33.451h-10.962v33.451h0ZM1413.973,254.978c0-3.616-1.13-6.459-3.391-8.532-2.26-2.071-5.35-3.107-9.267-3.107h-10.171v23.732h10.171c3.992,0,7.101-1.054,9.323-3.165,2.222-2.108,3.334-5.085,3.334-8.928h0Z"/>
    <path class="st0" d="M1464.601,311.483h-13.787l30.852-79.106h17.178l30.852,79.106h-13.9l-8.363-22.15h-34.468l-8.362,22.15h-.002ZM1477.258,278.258h25.879l-12.883-34.129-12.996,34.129Z"/>
    <path class="st0" d="M1563.144,311.483h-12.883v-79.106h16.387l21.924,37.067,22.149-37.067h16.387v79.106h-12.996v-61.251l-20.681,34.129h-9.493l-20.794-34.355v61.477h0Z"/>
    <path class="st0" d="M1670.05,311.483h-12.883v-79.106h16.387l21.924,37.067,22.149-37.067h16.387v79.106h-12.996v-61.251l-20.681,34.129h-9.493l-20.794-34.355v61.477h0Z"/>
    <path class="st0" d="M1764.074,311.483v-79.106h44.073v10.962h-31.19v22.375h26.67v10.962h-26.67v23.845h31.19v10.962h-44.073Z"/>
    <path class="st0" d="M1101.503,407.541c0,11.151-3.955,20.531-11.865,28.139-7.911,7.61-17.856,11.414-29.835,11.414h-30.738v-79.106h30.738c11.979,0,21.924,3.805,29.835,11.414,7.91,7.61,11.865,16.99,11.865,28.139ZM1059.916,379.853h-17.969v55.375h17.969c8.061,0,14.766-2.655,20.115-7.967s8.024-11.884,8.024-19.72c0-7.911-2.676-14.502-8.024-19.777-5.35-5.272-12.055-7.911-20.115-7.911Z"/>
    <path class="st0" d="M1125.009,447.094v-79.106h44.073v10.962h-31.19v22.375h26.67v10.962h-26.67v23.845h31.19v10.962h-44.073Z"/>
    <path class="st0" d="M1244.797,447.094h-12.883v-79.106h22.376c8.286,0,14.821,2.053,19.607,6.159,4.783,4.107,7.176,9.663,7.176,16.669,0,4.747-1.13,8.872-3.391,12.375-2.26,3.503-5.463,6.159-9.605,7.967l25.088,35.937h-15.369l-22.037-33.451h-10.962v33.451h0ZM1267.625,390.589c0-3.616-1.13-6.459-3.391-8.532-2.26-2.071-5.35-3.107-9.267-3.107h-10.171v23.732h10.171c3.992,0,7.101-1.054,9.323-3.165,2.222-2.108,3.334-5.085,3.334-8.928h0Z"/>
    <path class="st0" d="M1311.585,447.094v-79.106h44.073v10.962h-31.19v22.375h26.67v10.962h-26.67v23.845h31.19v10.962h-44.073Z"/>
    <path class="st0" d="M1386.737,407.541c0,8.438,2.692,15.482,8.08,21.133,5.386,5.65,12.148,8.476,20.285,8.476,4.67,0,9.002-1.035,12.996-3.108,3.992-2.071,7.307-5.029,9.944-8.871l10.397,8.023c-3.918,5.199-8.759,9.193-14.521,11.979-5.764,2.787-12.036,4.182-18.816,4.182-11.979,0-21.924-4.03-29.835-12.092-7.91-8.061-11.865-17.968-11.865-29.721s3.955-21.659,11.865-29.722c7.911-8.061,17.855-12.092,29.835-12.092,6.78,0,13.053,1.395,18.816,4.181,5.763,2.788,10.604,6.781,14.521,11.979l-10.397,8.024c-2.638-3.842-5.952-6.798-9.944-8.872-3.994-2.071-8.326-3.107-12.996-3.107-8.137,0-14.899,2.845-20.285,8.532-5.388,5.689-8.08,12.713-8.08,21.076Z"/>
    <path class="st0" d="M1483.697,447.094h-12.883v-79.106h12.883v32.886h44.526v-32.886h12.995v79.106h-12.995v-34.355h-44.526v34.355Z"/>
    <path class="st0" d="M1571.393,447.094v-79.106h44.073v10.962h-31.19v22.375h26.67v10.962h-26.67v23.845h31.19v10.962h-44.073Z"/>
    <path class="st0" d="M1654.792,447.094h-12.883v-79.106h22.376c8.286,0,14.821,2.053,19.607,6.159,4.783,4.107,7.176,9.663,7.176,16.669,0,4.747-1.13,8.872-3.391,12.375-2.26,3.503-5.463,6.159-9.605,7.967l25.088,35.937h-15.369l-22.037-33.451h-10.962v33.451h0ZM1677.62,390.589c0-3.616-1.13-6.459-3.391-8.532-2.26-2.071-5.35-3.107-9.267-3.107h-10.171v23.732h10.171c3.992,0,7.101-1.054,9.323-3.165,2.222-2.108,3.334-5.085,3.334-8.928h0Z"/>
    <path class="st0" d="M1726.781,407.541c0,8.438,2.692,15.482,8.08,21.133,5.386,5.65,12.148,8.476,20.285,8.476,4.67,0,9.002-1.035,12.996-3.108,3.992-2.071,7.307-5.029,9.944-8.871l10.397,8.023c-3.918,5.199-8.759,9.193-14.521,11.979-5.764,2.787-12.036,4.182-18.816,4.182-11.979,0-21.924-4.03-29.835-12.092-7.91-8.061-11.865-17.968-11.865-29.721s3.955-21.659,11.865-29.722c7.911-8.061,17.855-12.092,29.835-12.092,6.78,0,13.053,1.395,18.816,4.181,5.763,2.788,10.604,6.781,14.521,11.979l-10.397,8.024c-2.638-3.842-5.952-6.798-9.944-8.872-3.994-2.071-8.326-3.107-12.996-3.107-8.137,0-14.899,2.845-20.285,8.532-5.388,5.689-8.08,12.713-8.08,21.076Z"/>
    <path class="st0" d="M1823.742,447.094h-12.883v-79.106h12.883v32.886h44.526v-32.886h12.995v79.106h-12.995v-34.355h-44.526v34.355Z"/>
    <path class="st0" d="M1911.438,447.094v-79.106h44.073v10.962h-31.19v22.375h26.67v10.962h-26.67v23.845h31.19v10.962h-44.073Z"/>
  </g>
  <g>
    <path class="st0" d="M1057.642,596.565c-4.972,0-9.192,1.621-12.657,4.859-3.466,3.24-5.198,7.159-5.198,11.753,0,3.316.904,6.329,2.712,9.041s5.65,6.142,11.527,10.284c6.403,4.446,10.604,8.249,12.601,11.414,1.995,3.164,2.995,6.743,2.995,10.735,0,6.255-2.204,11.453-6.611,15.596-4.408,4.143-10.001,6.215-16.782,6.215-5.198,0-9.701-1.056-13.504-3.164-3.805-2.108-7.063-5.312-9.775-9.605l3.277-2.261c2.486,3.843,5.368,6.688,8.645,8.532,3.277,1.848,7.063,2.77,11.357,2.77,5.725,0,10.397-1.713,14.013-5.143,3.616-3.427,5.424-7.741,5.424-12.939,0-3.39-.904-6.459-2.712-9.21-1.808-2.749-5.689-6.196-11.64-10.341-6.329-4.368-10.492-8.137-12.487-11.301-1.997-3.164-2.995-6.704-2.995-10.623,0-5.574,2.128-10.357,6.385-14.352,4.255-3.993,9.397-5.99,15.426-5.99,4.821,0,8.928,1.018,12.318,3.052,3.391,2.034,5.951,5.048,7.685,9.041l-3.39,2.034c-1.433-3.465-3.523-6.064-6.272-7.798-2.751-1.732-6.198-2.6-10.34-2.6h-.002Z"/>
    <path class="st0" d="M1093.352,674.203h-3.842l14.013-79.106h16.16c6.705,0,11.96,1.621,15.766,4.859,3.803,3.24,5.706,7.724,5.706,13.448,0,6.856-2.43,12.356-7.289,16.499-4.859,4.145-11.357,6.216-19.494,6.216h-14.238l-6.781,38.084h0ZM1137.086,613.516c0-4.82-1.469-8.493-4.407-11.018-2.938-2.523-7.271-3.786-12.996-3.786h-12.996l-5.989,33.79h13.674c7.007,0,12.545-1.713,16.613-5.143,4.067-3.427,6.102-8.041,6.102-13.844h-.001Z"/>
    <path class="st0" d="M1152.115,674.203h-3.842l14.013-79.106h3.843l-14.014,79.106h0Z"/>
    <path class="st0" d="M1182.402,674.203h-3.842l14.013-79.106h5.086l41.7,75.151,13.335-75.151h3.843l-14.014,79.106h-5.198l-41.7-74.925-13.223,74.925h0Z"/>
    <path class="st0" d="M1287.725,674.203l13.223-75.49h-27.461l.564-3.616h58.991l-.565,3.616h-27.688l-13.222,75.49h-3.843.001Z"/>
    <path class="st0" d="M1340.726,674.203h-3.842l14.013-79.106h14.014c6.78,0,12.053,1.602,15.821,4.803,3.766,3.203,5.65,7.704,5.65,13.505,0,5.5-1.639,10.171-4.916,14.013-3.277,3.843-7.704,6.441-13.278,7.798l19.55,38.988h-4.633l-18.76-38.311c-.754.076-1.525.133-2.316.17-.791.039-1.602.057-2.43.057h-12.092l-6.781,38.084h0ZM1382.314,613.516c0-4.82-1.47-8.493-4.407-11.018-2.938-2.523-7.271-3.786-12.996-3.786h-10.85l-5.989,33.79h11.527c7.006,0,12.544-1.713,16.612-5.143,4.068-3.427,6.103-8.041,6.103-13.844h0Z"/>
    <path class="st0" d="M1413.053,606.736c4.143-4.444,8.984-7.872,14.521-10.283,5.538-2.411,11.432-3.617,17.687-3.617,10.396,0,18.985,3.523,25.766,10.566,6.781,7.046,10.171,15.766,10.171,26.162,0,6.179-1.093,12.131-3.277,17.855-2.186,5.727-5.312,10.774-9.38,15.144-4.144,4.446-8.984,7.873-14.521,10.283s-11.434,3.616-17.686,3.616c-10.397,0-18.986-3.521-25.767-10.566-6.78-7.043-10.171-15.765-10.171-26.161,0-6.177,1.092-12.129,3.277-17.855,2.185-5.725,5.312-10.773,9.38-15.144h0ZM1404.464,639.848c0,9.267,3.032,17.083,9.098,23.449,6.063,6.367,13.617,9.549,22.658,9.549,5.65,0,10.999-1.13,16.047-3.39,5.047-2.261,9.493-5.499,13.336-9.719,3.69-3.993,6.535-8.626,8.532-13.9,1.995-5.272,2.994-10.736,2.994-16.387,0-9.267-3.033-17.082-9.097-23.449-6.065-6.365-13.657-9.549-22.771-9.549-5.65,0-11.001,1.13-16.048,3.39-5.048,2.261-9.455,5.501-13.222,9.719-3.692,3.994-6.537,8.628-8.532,13.9-1.997,5.274-2.995,10.736-2.995,16.387h0Z"/>
    <path class="st0" d="M1497.245,674.203h-3.842l14.013-79.106h5.086l41.7,75.151,13.335-75.151h3.843l-14.014,79.106h-5.198l-41.7-74.925-13.223,74.925h0Z"/>
    <path class="st0" d="M1587.652,674.203h-3.842l14.013-79.106h3.843l-14.014,79.106h0Z"/>
    <path class="st0" d="M1649.806,676.463c-10.397,0-18.986-3.521-25.767-10.566-6.78-7.043-10.171-15.765-10.171-26.161,0-6.177,1.092-12.129,3.277-17.855,2.185-5.725,5.312-10.773,9.38-15.144,4.143-4.444,8.984-7.872,14.521-10.283,5.538-2.411,11.432-3.617,17.687-3.617,10.396,0,18.985,3.523,25.766,10.566,6.781,7.046,10.171,15.766,10.171,26.162,0,6.179-1.093,12.131-3.277,17.855-2.186,5.727-5.312,10.774-9.38,15.144-1.96,2.109-4.068,3.994-6.328,5.65-2.26,1.658-4.634,3.051-7.119,4.181l7.006,6.781c2.637,2.636,5.425,4.67,8.363,6.103,2.938,1.43,5.688,2.146,8.249,2.146,1.131,0,2.165-.056,3.108-.169.94-.113,1.788-.282,2.542-.509l-.678,3.729c-.604.226-1.319.396-2.147.509-.829.112-1.771.169-2.825.169-3.39,0-6.706-.734-9.944-2.203-3.24-1.47-6.329-3.599-9.267-6.386l-8.815-8.362c-2.26.752-4.596,1.317-7.006,1.695-2.412.376-4.859.564-7.346.564h0ZM1679.075,659.738c3.69-3.993,6.535-8.626,8.532-13.9,1.995-5.272,2.994-10.736,2.994-16.387,0-9.267-3.033-17.082-9.097-23.449-6.065-6.365-13.657-9.549-22.771-9.549-5.65,0-11.001,1.13-16.048,3.39-5.048,2.261-9.455,5.501-13.222,9.719-3.692,3.994-6.537,8.628-8.532,13.9-1.997,5.274-2.995,10.736-2.995,16.387,0,9.267,3.032,17.083,9.098,23.449,6.063,6.367,13.617,9.549,22.658,9.549,5.65,0,10.999-1.13,16.047-3.39,5.047-2.261,9.493-5.499,13.336-9.719h0Z"/>
    <path class="st0" d="M1734.788,672.846c7.459,0,13.505-2.316,18.138-6.95,4.634-4.633,7.741-11.432,9.323-20.397l8.815-50.402h3.842l-8.928,50.628c-1.808,10.171-5.312,17.838-10.51,22.998-5.198,5.161-12.055,7.74-20.567,7.74-9.493,0-16.482-2.881-20.964-8.645-4.483-5.764-5.819-13.73-4.012-23.901l8.702-48.82h3.842l-8.476,48.594c-1.658,9.419-.678,16.632,2.938,21.642,3.616,5.011,9.566,7.515,17.855,7.515l.002-.002Z"/>
    <path class="st0" d="M1785.302,674.203l14.013-79.106h36.841l-.564,3.616h-33.112l-5.876,33.451h28.704l-.678,3.503h-28.704l-6.103,34.92h32.998l-.564,3.616h-36.955Z"/>
  </g>
  <rect class="st0" x="1017.408" y="522.048" width="938.439" height="6"/>
</svg>